HIERARCHY
ROOT Root
{
  OFFSET -2.02849 11.9301 9.36952
  CHANNELS 6 Xposition Yposition Zposition Zrotation Xrotation Yrotation
  JOINT Spine
  {
    OFFSET 5.3114 0 0
    CHANNELS 3 Zrotation Xrotation Yrotation
    JOINT Spine1
    {
      OFFSET 2.79004 0 0
      CHANNELS 3 Zrotation Xrotation Yrotation
      JOINT Neck
      {
        OFFSET 1.43377 0 0
        CHANNELS 3 Zrotation Xrotation Yrotation
        JOINT Head
        {
          OFFSET 1.86043 0 0
          CHANNELS 3 Zrotation Xrotation Yrotation
          End Site
          {
            OFFSET 0 0 0
          }
        }
      }
      JOINT LeftArm
      {
        OFFSET 0.0387506 0 2.55754
        CHANNELS 3 Zrotation Xrotation Yrotation
        JOINT LeftForeArm
        {
          OFFSET 4.24845 0 0
          CHANNELS 3 Zrotation Xrotation Yrotation
          JOINT LeftHand
          {
            OFFSET 4.01008 0 0
            CHANNELS 3 Zrotation Xrotation Yrotation
            End Site
            {
              OFFSET 0 0 0
            }
          }
        }
      }
      JOINT RightArm
      {
        OFFSET 0.0387506 0 -2.55754
        CHANNELS 3 Zrotation Xrotation Yrotation
        JOINT RightForeArm
        {
          OFFSET -4.24845 0 0
          CHANNELS 3 Zrotation Xrotation Yrotation
          JOINT RightHand
          {
            OFFSET -4.01009 0 0
            CHANNELS 3 Zrotation Xrotation Yrotation
            End Site
            {
              OFFSET 0 0 0
            }
          }
        }
      }
    }
  }
  JOINT LeftUpLeg
  {
    OFFSET -1.23318 0 2.05692
    CHANNELS 3 Zrotation Xrotation Yrotation
    JOINT LeftLeg
    {
      OFFSET 5.46397 0 0
      CHANNELS 3 Zrotation Xrotation Yrotation
      JOINT LeftFoot
      {
        OFFSET 4.68898 0 0
        CHANNELS 3 Zrotation Xrotation Yrotation
        End Site
        {
          OFFSET 0 0 0
        }
      }
    }
  }
  JOINT RightUpLeg
  {
    OFFSET -1.24454 0 -2.05007
    CHANNELS 3 Zrotation Xrotation Yrotation
    JOINT RightLeg
    {
      OFFSET -5.46397 0 0
      CHANNELS 3 Zrotation Xrotation Yrotation
      JOINT RightFoot
      {
        OFFSET -4.68901 0 0
        CHANNELS 3 Zrotation Xrotation Yrotation
        End Site
        {
          OFFSET 0 0 0
        }
      }
    }
  }
}
MOTION
Frames:	23
Frame Time:	0.0416667
-2.14376 12.0708 9.4475 -99.5801 -2.5206 179.373 -0.649582 2.69498 -0.351094 9.27727 0.911793 1.5288 -0.820817 -4.33004 -7.81041 -16.1563 -8.38369 8.82572 25.6268 -23.4423 -161.289 27.7652 0.0957336 16.3838 -2.38695 -16.5067 174.108 -151.32 7.83093 -164.623 21.7627 -0.602887 12.8649 2.56642 17.6724 174.056 -19.713 -6.1117 -176.202 -33.0012 0.595008 -0.755785 31.6503 -13.0792 -172.065 160.101 -9.95144 -178.049 -31.4585 0.601984 -0.771299 23.1281 -1.64198 -178.718 
-2.16255 12.0691 9.44857 -99.7024 -2.60515 179.297 -0.677864 2.57468 -0.168899 9.08981 0.879098 1.582 -0.652308 -4.42259 -8.21349 -16.3292 -8.515 9.23614 20.2628 -25.533 -162.237 25.0558 -0.266304 14.8016 -2.10316 -14.6345 174.185 -156.105 6.89785 -164.208 21.5256 -0.622683 12.725 2.727 18.7026 174.006 -20.0039 -6.17063 -176.138 -33.0741 0.595055 -0.754792 31.6895 -12.9624 -172.121 159.809 -9.46315 -177.99 -31.5319 0.603205 -0.771044 22.6853 -1.50779 -178.782 
-2.18334 12.0673 9.44976 -99.7015 -2.63174 179.267 -0.730962 2.2791 -0.136955 9.07631 0.813514 1.82507 -1.19735 -4.35709 -8.6825 -16.0157 -8.35935 9.70146 13.8851 -27.4451 -163.545 23.4296 -0.447299 13.8469 -1.71967 -12.0533 174.273 -162.141 3.04697 -163.453 21.7942 -0.600225 12.8835 2.82189 19.3052 173.975 -20.2517 -5.78314 -175.981 -33.2336 0.595087 -0.752116 31.2542 -12.7128 -172.38 159.628 -9.03649 -177.927 -31.6388 0.604469 -0.770781 22.3066 -1.36366 -178.846 
-2.204 12.0655 9.45116 -99.3207 -2.40764 179.269 -0.865099 2.03645 -0.00273992 8.95689 0.752863 1.98032 -0.899959 -4.3085 -8.91926 -16.1671 -8.19357 9.76903 7.25075 -28.6442 -164.976 23.4938 -0.440643 13.8849 -1.44765 -10.1906 174.326 -167.882 -3.57194 -162.724 23.5579 -0.432482 13.9222 2.64105 18.1527 174.033 -19.9937 -5.58498 -175.871 -33.4282 0.595102 -0.749033 31.2738 -12.5717 -172.455 159.75 -8.69591 -177.898 -31.7963 0.605786 -0.770508 21.7658 -1.13706 -178.946 
-2.22134 12.0637 9.45498 -98.6571 -1.85075 179.473 -0.955547 2.06159 -0.138459 8.74414 0.749588 1.93372 -1.04721 -4.13664 -8.924 -15.3374 -7.80569 9.96318 0.880961 -30.0511 -165.654 25.505 -0.212703 15.0651 -1.54958 -10.8912 174.307 -173.745 -11.2713 -162.169 26.4138 -0.0943714 15.5961 2.41726 16.7047 174.1 -19.2395 -4.87454 -175.866 -33.4227 0.595098 -0.746306 31.0274 -13.126 -172.245 160.082 -8.55196 -177.769 -32.0461 0.607167 -0.770227 21.0783 -0.83447 -179.073 
-2.241 12.0618 9.46099 -97.9017 -0.922566 179.457 -1.19247 2.30233 0.0915231 8.55122 0.81629 1.9804 -1.32818 -4.0294 -8.87454 -14.0955 -7.46346 9.57368 -5.45956 -32.0919 -165.888 28.7931 0.251857 16.9813 -1.79028 -12.5327 174.258 179.828 -19.3679 -160.939 29.3617 0.343518 17.311 2.19028 15.213 174.162 -18.4185 -4.59685 -175.657 -33.7348 0.595073 -0.7447 31.7473 -13.1381 -172.053 160.415 -8.29256 -177.887 -32.1595 0.610347 -0.769935 19.9081 -0.386655 -179.251 
-2.26109 12.0579 9.46675 -97.1227 0.00537101 179.682 -1.69264 2.6698 0.0710039 8.77546 0.924867 2.02538 -1.93511 -3.81234 -8.94051 -12.5599 -6.92232 9.41436 -12.0467 -34.8856 -165.248 32.6644 0.941246 19.2124 -1.90156 -13.2838 174.233 172.279 -26.5468 -159.647 31.9166 0.795874 18.7839 1.94198 13.5565 174.224 -17.4328 -4.2504 -175.685 -33.8591 0.595025 -0.743973 32.8658 -12.5651 -172.03 160.662 -7.95811 -177.666 -32.569 0.616248 -0.765096 18.7169 0.132379 -179.436 
-2.28152 12.0536 9.47096 -96.2423 0.686028 179.734 -2.00924 2.81865 0.19517 8.77313 0.958432 1.94691 -2.23754 -3.67026 -8.72394 -11.334 -6.58375 9.20483 -18.9849 -37.4405 -163.869 36.4176 1.75659 21.3402 -1.90691 -13.3188 174.231 164.061 -32.7592 -158.741 34.4429 1.31032 20.2265 1.60152 11.2472 174.297 -16.5297 -3.6636 -175.536 -34.146 0.594953 -0.743361 33.2903 -12.4736 -171.971 161.141 -7.63159 -177.621 -32.9231 0.621447 -0.760645 17.7577 0.519103 -179.553 
-2.28925 12.0499 9.47485 -95.4452 1.22302 179.803 -2.47322 3.10732 0.160807 8.88796 1.0264 1.75575 -2.51083 -3.6527 -8.4874 -10.2404 -6.5611 9.56903 -25.9715 -40.3943 -161.772 40.3861 2.77954 23.5484 -1.95866 -13.6687 174.22 155.755 -37.8554 -157.996 37.3898 1.99916 21.8923 1.20524 8.51194 174.365 -15.7279 -3.02505 -175.455 -34.3909 0.594855 -0.742851 33.1554 -12.64 -171.928 161.547 -7.22233 -177.493 -33.322 0.627242 -0.755897 16.8839 1.0528 -179.7 
-2.28493 12.049 9.47695 -94.7971 1.50878 179.776 -3.38187 3.10026 0.27907 8.85747 1.01215 1.67247 -3.38649 -3.47979 -8.57002 -7.50258 -6.0504 10.0764 -32.4357 -42.9703 -159.389 44.3778 3.97145 25.7174 -1.74993 -12.2589 174.267 148.35 -43.3338 -155.952 39.8577 2.6351 23.2592 0.733228 5.20282 174.421 -15.0577 -2.67221 -175.384 -34.6856 0.594729 -0.742429 33.0949 -12.9273 -171.8 162.034 -7.04577 -177.48 -33.5687 0.631107 -0.755743 16.5027 1.41874 -179.798 
-2.26629 12.0484 9.47775 -94.0938 1.32483 179.868 -4.1451 2.98955 0.0329055 8.84634 0.976171 1.71203 -3.9688 -3.58886 -8.18197 -5.72168 -6.21044 9.82032 -40.4595 -44.8209 -157.945 47.1335 4.88843 27.1764 -1.63731 -11.4916 174.29 140.288 -47.0231 -154.413 41.791 3.18099 24.3191 0.230234 1.63753 174.451 -14.2062 -2.54367 -175.544 -34.5658 0.594573 -0.74208 32.7523 -13.1214 -171.776 162.62 -6.80177 -177.283 -34.1373 0.632229 -0.755855 16.4526 1.7156 -179.877 
-2.22509 12.048 9.47379 -93.767 0.954152 179.735 -5.54257 2.96622 -0.0855034 8.64427 0.954311 1.67178 -3.9927 -3.72154 -7.90717 -4.2294 -6.35965 10.0733 -48.3674 -46.7995 -156.998 49.3866 5.69325 28.3462 -1.65057 -11.5825 174.287 133.308 -49.5795 -152.632 43.3578 3.65085 25.1691 -0.263485 -1.87524 174.455 -13.7284 -2.63918 -175.461 -34.576 0.594386 -0.74179 32.5894 -13.0999 -171.835 163.263 -6.94425 -177.441 -34.101 0.633151 -0.756215 16.9654 1.63456 -179.871 
-2.16479 12.0476 9.46565 -93.5098 0.399766 179.509 -7.29364 2.84174 -0.134012 8.56243 0.906527 1.62282 -3.7092 -3.86526 -7.69906 -2.70991 -6.45247 10.2807 -57.0709 -47.9906 -157.306 50.4613 6.09617 28.8947 -1.51285 -10.6393 174.314 127.02 -51.1075 -150.871 44.3757 3.97073 25.7159 -0.471301 -3.35455 174.453 -13.2571 -3.00224 -175.37 -34.6158 0.594166 -0.741545 32.6328 -13.0816 -171.833 164.249 -6.87502 -177.612 -33.6569 0.634111 -0.756803 17.5216 1.52059 -179.849 
-2.09262 12.0471 9.45559 -93.3025 -0.165033 179.507 -9.11056 2.51793 -0.502722 7.8502 0.796746 1.65209 -2.88127 -3.945 -7.34652 -0.711524 -6.27945 10.1307 -64.5248 -48.8579 -157.284 50.3552 6.05599 28.8407 -1.40431 -9.89159 174.333 122.006 -52.5153 -149.126 44.9997 4.1715 26.0495 -0.629291 -4.47963 174.45 -12.6896 -3.45455 -175.519 -34.4571 0.593911 -0.74133 32.821 -12.7275 -171.942 165.243 -6.85149 -177.56 -33.3736 0.635073 -0.757599 18.2902 1.52064 -179.865 
-2.00857 12.0466 9.44535 -93.3337 -0.392443 179.536 -11.2677 2.13002 -0.748666 7.02404 0.679009 1.74324 -1.81046 -3.98616 -7.30181 1.49697 -5.88112 9.88917 -70.0626 -49.7808 -155.91 49.892 5.8814 28.604 -1.26349 -8.91669 174.356 118.583 -54.6159 -146.612 45.1437 4.21843 26.1262 -0.783007 -5.57339 174.445 -12.095 -3.87782 -175.736 -34.0344 0.593619 -0.74113 33.0604 -12.9935 -171.704 165.816 -7.27144 -177.572 -33.2724 0.636002 -0.758584 19.0928 1.50541 -179.886 
-1.92531 12.0461 9.4339 -93.4848 -0.244016 179.737 -13.3433 1.91639 -1.04397 6.17023 0.621787 1.94016 -0.61122 -4.00328 -7.53388 3.25712 -5.38318 9.80239 -74.0248 -50.8166 -153.329 49.5283 5.74901 28.4226 -1.11463 -7.88036 174.378 116.707 -57.0322 -142.924 44.873 4.13015 25.9814 -0.740069 -5.27181 174.452 -11.532 -4.13587 -176.091 -33.5559 0.593289 -0.740933 33.6004 -12.8398 -171.593 166.071 -7.58044 -177.374 -33.375 0.636862 -0.763407 19.5429 1.69414 -179.964 
-1.83944 12.0453 9.42337 -93.5932 0.0485839 179.875 -15.2784 1.99103 -1.26257 5.11794 0.638455 1.89077 1.00896 -4.1077 -7.24789 4.96165 -5.10858 9.59421 -76.9071 -52.1027 -150.4 49.209 5.63009 28.2565 -1.02799 -7.27454 174.389 115.505 -58.5788 -139.278 44.7534 4.0916 25.9179 -0.667115 -4.75505 174.46 -10.8912 -4.22763 -176.314 -33.1667 0.592918 -0.740723 34.325 -12.4816 -171.558 166.402 -7.85572 -177.221 -33.3533 0.637618 -0.768261 19.7678 1.90726 179.951 
-1.75699 12.0444 9.41499 -93.8138 0.379089 179.948 -17.2576 1.91862 -1.41868 4.0286 0.629029 1.94445 2.87896 -4.08608 -6.99692 5.90561 -4.64188 9.37956 -78.8515 -53.0417 -146.892 48.8886 5.51135 28.0892 -0.932507 -6.60217 174.398 115.145 -60.2487 -135.203 44.426 3.98667 25.7431 -0.648463 -4.62474 174.464 -10.4352 -4.21029 -176.438 -32.8646 0.592012 -0.740485 34.8826 -12.3772 -171.441 166.572 -8.2774 -177.189 -33.303 0.638234 -0.77446 20.052 2.08512 179.87 
-1.66771 12.0397 9.39794 -94.0667 0.824816 -179.671 -19.1995 1.64903 -1.69475 3.47303 0.568539 2.18246 3.93712 -3.94685 -6.89557 7.31217 -3.97713 9.01143 -80.3729 -53.4851 -142.506 48.2851 5.29351 27.7772 -0.879869 -6.23203 174.402 114.636 -62.0175 -131.135 44.3543 3.96369 25.7045 -0.622895 -4.44453 174.469 -9.76632 -3.94644 -176.966 -32.1861 0.590388 -0.740206 35.2412 -12.4877 -171.222 166.629 -8.45599 -176.669 -33.5629 0.638764 -0.778284 20.0862 2.61494 179.687 
-1.59454 12.0343 9.38607 -94.1495 1.06264 -179.498 -20.4173 1.49672 -1.8554 2.66102 0.532268 2.13712 4.87263 -3.97349 -6.66409 8.62724 -3.71695 8.84664 -81.4241 -54.3286 -137.97 47.9157 5.16191 27.5853 -0.756669 -5.36281 174.411 114.52 -62.8317 -126.555 44.2952 3.94498 25.6729 -0.575256 -4.10681 174.475 -9.23401 -3.8487 -177.205 -31.7732 0.588513 -0.739872 35.6348 -12.2025 -171.249 166.893 -9.14248 -176.586 -33.6471 0.639285 -0.778474 20.765 2.72538 179.604 
-1.52404 12.0293 9.37648 -94.1599 1.17854 -179.495 -21.4462 1.22455 -1.89691 2.0586 0.469225 2.02532 5.79393 -3.89415 -6.44635 9.22176 -3.35821 8.743 -79.1715 -56.0592 -130.247 48.1424 5.24254 27.7032 -0.761297 -5.39513 174.411 114.456 -63.0698 -121.92 44.2936 3.94447 25.6721 -0.52832 -3.77384 174.48 -8.79134 -4.09962 -177.356 -31.6819 0.586853 -0.739468 36.2022 -12.225 -171.05 167.268 -9.73419 -176.695 -33.6334 0.639796 -0.77863 21.4768 2.73094 179.555 
-1.45573 12.0267 9.36305 -94.0587 1.11576 -179.624 -22.1202 0.810369 -1.76096 2.0179 0.369165 1.95259 5.92586 -3.6669 -6.40798 9.53644 -2.83387 8.83156 -73.9799 -57.5217 -119.573 48.8889 5.51161 28.0895 -0.678801 -4.8129 174.416 113.305 -62.7435 -117.903 44.2974 3.94565 25.6741 -0.427545 -3.05616 174.488 -8.31828 -4.09968 -177.311 -31.8041 0.585875 -0.738979 36.48 -12.2656 -170.944 167.945 -10.0445 -176.836 -33.3957 0.640296 -0.778754 22.1268 2.70643 179.524 
-1.39745 12.0211 9.35075 -93.7576 0.992177 -179.735 -22.4708 0.571972 -1.83921 1.66094 0.300269 1.51331 6.97378 -3.43205 -5.15315 9.26739 -2.76017 8.14525 -70.987 -58.0142 -111.896 49.3922 5.69599 28.3485 -0.800118 -5.67006 174.409 112.809 -61.4913 -113.507 44.3722 3.96952 25.7141 -0.294537 -2.10656 174.494 -7.8222 -4.00793 -177.231 -32.0394 0.590031 -0.735599 36.593 -12.0987 -171.022 168.756 -10.3345 -176.964 -33.2167 0.640784 -0.778846 22.6954 2.57191 179.543 
